# xmcd
#
# Track frame offsets: 
#        150
#        12236
#        26465
#        40437
#        53966
#        66963
#        85125
#        98964
#        113643
#        126648
#        140876
#        160107
#        195177
#
# Disc length: 4369 seconds
#
# Revision: 0
# Processed by: cddbd v1.5.2PL0 Copyright (c) Steve Scherf et al.
# Submitted via: ExactAudioCopy v0.99pb5
#
DISCID=b2110f0d
DTITLE=Hoochie Coochie Band - Screamin´ The Blues
DYEAR=2006
DGENRE=
TTITLE0=Big Boss Man
TTITLE1=Three, Four, Five
TTITLE2=Don´t  Tell Me
TTITLE3=You Don´t Have to Go
TTITLE4=Big Belly Blues
TTITLE5=Catfish Blues
TTITLE6=Don´t Start Me Talkin´
TTITLE7=Black Hair Blues
TTITLE8=What´s about
TTITLE9=That´s All Right
TTITLE10=Who´s Been Talkin´
TTITLE11=Nineteen Years Old
TTITLE12=video
EXTD=
EXTT0=
EXTT1=
EXTT2=
EXTT3=
EXTT4=
EXTT5=
EXTT6=
EXTT7=
EXTT8=
EXTT9=
EXTT10=
EXTT11=
EXTT12=
PLAYORDER=
